<svg width="53" height="52" xmlns="http://www.w3.org/2000/svg"><g fill="none" fill-rule="evenodd" transform="rotate(180 26.5 26)"><rect fill-opacity=".4" fill="#D8D8D8" width="53" height="52" rx="26"/><path d="M11.652 24.013l10.01-9.009a2 2 0 0 1 2.825.149A2 2 0 0 1 25 16.49v18.018a2 2 0 0 1-2 2 2 2 0 0 1-1.338-.513l-10.01-9.01a2 2 0 0 1-.149-2.824 2 2 0 0 1 .149-.149z" fill="#8C8B8B"/><path d="M24.652 24.013l10.01-9.009a2 2 0 0 1 2.825.149A2 2 0 0 1 38 16.49v18.018a2 2 0 0 1-2 2 2 2 0 0 1-1.338-.513l-10.01-9.01a2 2 0 0 1-.149-2.824 2 2 0 0 1 .149-.149z" fill="#8C8B8B"/></g></svg>