<svg width="48" height="29" xmlns="http://www.w3.org/2000/svg"><g transform="translate(-2 -12)" fill="none" fill-rule="evenodd"><circle cx="26" cy="26" r="26"/><g transform="translate(2 12)" fill="#fff" fill-rule="nonzero"><path d="M24 0C11.7 0 0 5.5 0 11c0 10.8 4 17 24 17s24-6.2 24-17C48 5.5 36.3 0 24 0zm0 2c12.8 0 22 5.4 22 9 0 3.4-8.8 7-22 7S2 14.5 2 11c0-3.6 9.2-9 22-9zm0 24C8.3 26 3.4 22.3 2.3 15.2c4 3.3 12.9 5 21.7 5 8.8 0 17.7-1.7 21.7-5-1.1 7.1-6 11-21.7 11z"/><circle cx="18" cy="5.1" r="1"/><circle cx="22" cy="5.1" r="1"/><circle cx="26" cy="5.1" r="1"/><circle cx="30" cy="5.1" r="1"/><path d="M22 23c0 .6.4 1 1 1h2a1 1 0 1 0 0-2h-2a1 1 0 0 0-1 1z"/></g></g></svg>