<svg width="48" height="36" xmlns="http://www.w3.org/2000/svg">
  <g fill="none" fill-rule="evenodd">
    <path d="M-171-253h748V957h-748z"/>
    <g transform="translate(-2 -8)">
      <circle fill="none" cx="26" cy="26" r="26"/>
      <g transform="translate(2 8)" fill="#333" fill-rule="nonzero">
        <path d="M24 25.99997c3.30862 0 6-2.69138 6-6 0-3.30863-2.69138-6-6-6s-6 2.69137-6 6c0 3.30862 2.69138 6 6 6zm0-9.99994c2.20603 0 4.00003 1.7939 4.00003 4.00003S26.20603 24 24 24c-2.20603 0-4.00003-1.7939-4.00003-4.00003s1.794-3.99994 4.00003-3.99994z"/>
        <path d="M22.99997 21C23.55272 21 24 20.55272 24 19.99997c.55275 0 1.00003-.44728 1.00003-1.00003S24.55275 17.9999 24 17.9999c-1.1025 0-1.99997.89747-1.99997 1.99996 0 .55285.44728 1.00013.99994 1.00013z"/>
        <path d="M46.99997 0H1.00003C.44728 0 0 .44728 0 1.00003v7.00003C0 10.2061 1.7939 12 4.00003 12v4.00003C4.00003 27.02831 12.97172 36 24 36s19.99997-8.97169 19.99997-19.99997V12C46.20609 12 48 10.2061 48 7.99997V1.00003C48 .44728 47.55272 0 46.99997 0zM42 16.00003c0 9.92485-8.07516 18-18 18s-18-8.07516-18-18V12h12.06188c-2.45044 1.82447-4.06191 4.7174-4.06191 7.99997C13.99997 25.51369 18.48637 30 24 30c5.51363 0 10.00003-4.48631 10.00003-10.00003 0-3.28256-1.61147-6.1755-4.0619-7.99997H42v4.00003zM24 12c4.41112 0 7.99997 3.58884 7.99997 7.99997 0 4.41112-3.58885 7.99997-7.99997 7.99997s-7.99997-3.58885-7.99997-7.99997C16.00003 15.58884 19.58888 12 24 12zm22.00003-4.00003c0 1.1025-.89747 1.99997-1.99997 1.99997H4.00003c-1.1025 0-1.99997-.89747-1.99997-1.99997v-6h43.99997v6z"/>
        <circle cx="37.00003" cy="15" r="1.00003"/>
      </g>
    </g>
  </g>
</svg>
