<svg width="48" height="45" xmlns="http://www.w3.org/2000/svg"><g transform="translate(-2 -4)" fill="none" fill-rule="evenodd"><circle fill="none" cx="26" cy="26" r="26"/><g transform="translate(2 4)" fill="#333" fill-rule="nonzero"><path d="M47.7 20.4L24.7.2a1 1 0 0 0-1.4 0L.3 20.4a1 1 0 0 0-.2 1c.1.5.5.7.9.7h5v21.1c0 .6.4 1 1 1h34c.6 0 1-.4 1-1v-21h5a1 1 0 0 0 1-.7 1 1 0 0 0-.3-1.1zM41 20a1 1 0 0 0-1 1v21.1H8v-21c0-.6-.4-1-1-1H3.7L24 2.2l20.3 17.8H41z"/><circle cx="28.2" cy="22.6" r="1.9"/><path d="M20.3 23.2c0 .8.2 1.6.4 2.3l-6.3 6.3a1 1 0 0 0-.3.8v3c0 .6.5 1.1 1 1.1h3.2c.2 0 .5-.1.7-.3l6.3-6.3a7.3 7.3 0 1 0-5-6.9zm7.3-5.1a5.2 5.2 0 1 1-2.1 9.9 1 1 0 0 0-1.2.2l-6.5 6.4h-1.6V33l6.5-6.5c.3-.3.3-.7.2-1.1a5.1 5.1 0 0 1 4.7-7.3z"/></g></g></svg>