<svg width="53" height="52" xmlns="http://www.w3.org/2000/svg">
  <g fill="none" fill-rule="evenodd">
    <rect fill-opacity=".4" fill="#D8D8D8" width="53" height="52" rx="26"/>
    <path d="M11.65176 24.01341l10.01031-9.00927c.82102-.73892 2.0856-.67236 2.82452.14866A2 2 0 0 1 25 16.49072v18.01856c0 1.10456-.89543 2-2 2a2 2 0 0 1-1.33793-.51342l-10.0103-9.00927c-.82103-.73892-.88758-2.0035-.14866-2.82452a2 2 0 0 1 .14865-.14866z" fill="#8C8B8B"/>
    <path d="M24.65176 24.01341l10.01031-9.00927c.82102-.73892 2.0856-.67236 2.82452.14866A2 2 0 0 1 38 16.49072v18.01856c0 1.10456-.89543 2-2 2a2 2 0 0 1-1.33793-.51342l-10.0103-9.00927c-.82103-.73892-.88758-2.0035-.14866-2.82452a2 2 0 0 1 .14865-.14866z" fill="#8C8B8B"/>
  </g>
</svg>
